{
  "accessors": [
    {
      "bufferView": 2,
      "componentType": 5126,
      "count": 10826,
      "max": [
        169.22666931152344,
        11.939956665039063,
        130.16275024414063
      ],
      "min": [
        -158.1582794189453,
        -29.45969009399414,
        -90.45440673828125
      ],
      "type": "VEC3"
    },
    {
      "bufferView": 2,
      "byteOffset": 129912,
      "componentType": 5126,
      "count": 10826,
      "max": [
        0.9999901652336121,
        0.999944269657135,
        1.0
      ],
      "min": [
        -0.9997755885124207,
        -0.9999933242797852,
        -0.9999163746833801
      ],
      "type": "VEC3"
    },
    {
      "bufferView": 1,
      "componentType": 5126,
      "count": 10826,
      "max": [
        0.9177342653274536,
        0.6958699226379395
      ],
      "min": [
        0.0,
        0.0
      ],
      "type": "VEC2"
    },
    {
      "bufferView": 0,
      "componentType": 5125,
      "count": 51840,
      "type": "SCALAR"
    }
  ],
  "asset": {
    "extras": {
      "author": "komashenn (https://sketchfab.com/komashenn)",
      "license": "CC-BY-4.0 (http://creativecommons.org/licenses/by/4.0/)",
      "source": "https://sketchfab.com/3d-models/stylized-heart-model-b12fa85ca19640da93dc0aed5101e2bd",
      "title": "Stylized heart model"
    },
    "generator": "Sketchfab-14.95.0",
    "version": "2.0"
  },
  "bufferViews": [
    {
      "buffer": 0,
      "byteLength": 207360,
      "name": "floatBufferViews",
      "target": 34963
    },
    {
      "buffer": 0,
      "byteLength": 86608,
      "byteOffset": 207360,
      "byteStride": 8,
      "name": "floatBufferViews",
      "target": 34962
    },
    {
      "buffer": 0,
      "byteLength": 259824,
      "byteOffset": 293968,
      "byteStride": 12,
      "name": "floatBufferViews",
      "target": 34962
    }
  ],
  "buffers": [
    {
      "byteLength": 553792,
      "uri": "scene.bin"
    }
  ],
  "images": [
    {
      "uri": "textures/radiant_baseColor.jpeg"
    }
  ],
  "materials": [
    {
      "alphaMode": "BLEND",
      "doubleSided": true,
      "name": "radiant",
      "pbrMetallicRoughness": {
        "baseColorFactor": [
          1.0,
          1.0,
          1.0,
          0.6133030638482302
        ],
        "baseColorTexture": {
          "index": 0
        },
        "roughnessFactor": 0.3580708024903946
      }
    }
  ],
  "meshes": [
    {
      "name": "Heart.001_radiant_0",
      "primitives": [
        {
          "attributes": {
            "NORMAL": 1,
            "POSITION": 0,
            "TEXCOORD_0": 2
          },
          "indices": 3,
          "material": 0,
          "mode": 4
        }
      ]
    }
  ],
  "nodes": [
    {
      "children": [
        1
      ],
      "matrix": [
        1.0,
        0.0,
        0.0,
        0.0,
        0.0,
        2.220446049250313e-16,
        -1.0,
        0.0,
        0.0,
        1.0,
        2.220446049250313e-16,
        0.0,
        0.0,
        0.0,
        0.0,
        1.0
      ],
      "name": "Sketchfab_model"
    },
    {
      "children": [
        2
      ],
      "matrix": [
        0.009999999776482582,
        0.0,
        0.0,
        0.0,
        0.0,
        0.0,
        0.009999999776482582,
        0.0,
        0.0,
        -0.009999999776482582,
        0.0,
        0.0,
        0.0,
        0.0,
        0.0,
        1.0
      ],
      "name": "267e4830a8144ee1a2710d28b5a529d0.fbx"
    },
    {
      "children": [
        3
      ],
      "name": "RootNode"
    },
    {
      "children": [
        4
      ],
      "matrix": [
        1.0,
        0.0,
        0.0,
        0.0,
        0.0,
        -2.6110774762722596e-07,
        1.6026679277419833,
        0.0,
        0.0,
        -0.9999999999999868,
        -1.6292067939183141e-07,
        0.0,
        0.0,
        0.0,
        0.0,
        1.0
      ],
      "name": "Heart.001"
    },
    {
      "mesh": 0,
      "name": "Heart.001_radiant_0"
    }
  ],
  "samplers": [
    {
      "magFilter": 9729,
      "minFilter": 9987,
      "wrapS": 10497,
      "wrapT": 10497
    }
  ],
  "scene": 0,
  "scenes": [
    {
      "name": "Sketchfab_Scene",
      "nodes": [
        0
      ]
    }
  ],
  "textures": [
    {
      "sampler": 0,
      "source": 0
    }
  ]
}
