<?xml version="1.0" standalone="no"?>
<!DOCTYPE svg PUBLIC "-//W3C//DTD SVG 20010904//EN"
 "http://www.w3.org/TR/2001/REC-SVG-20010904/DTD/svg10.dtd">
<svg version="1.0" xmlns="http://www.w3.org/2000/svg"
 width="260.000000pt" height="260.000000pt" viewBox="0 0 260.000000 260.000000"
 preserveAspectRatio="xMidYMid meet">
<metadata>
Created by potrace 1.14, written by Peter Selinger 2001-2017
</metadata>
<g transform="translate(0.000000,260.000000) scale(0.100000,-0.100000)"
fill="#000000" stroke="none">
<path d="M655 2168 c2 -21 -2 -28 -23 -33 -15 -3 -68 -26 -117 -49 -71 -34
-99 -53 -133 -94 -24 -28 -51 -54 -61 -57 -15 -4 -18 -14 -16 -40 2 -20 -1
-33 -6 -30 -5 4 -9 2 -9 -4 0 -5 -7 -17 -16 -26 -9 -9 -17 -30 -17 -48 -1 -18
-8 -38 -15 -46 -7 -7 -11 -20 -8 -27 3 -8 2 -14 -2 -14 -5 0 -8 -24 -7 -52 1
-29 -2 -61 -7 -70 -6 -12 -5 -18 3 -18 9 0 9 -3 0 -14 -8 -10 -9 -16 -1 -21 6
-4 7 -12 1 -23 -6 -11 -4 -26 6 -45 8 -16 12 -31 9 -34 -3 -3 2 -20 11 -37 15
-28 20 -44 25 -83 1 -7 8 -13 15 -13 8 0 12 -4 8 -9 -3 -5 -1 -12 5 -16 6 -4
8 -11 4 -16 -3 -6 4 -21 16 -34 12 -13 19 -28 16 -33 -3 -5 3 -20 14 -32 11
-12 17 -27 14 -31 -3 -5 -1 -9 5 -9 6 0 18 -16 27 -35 9 -19 20 -32 25 -29 5
3 9 -2 9 -10 0 -9 5 -16 10 -16 6 0 10 -10 10 -22 0 -12 3 -18 7 -15 3 4 13
-2 20 -13 8 -11 19 -18 24 -15 5 4 9 -1 9 -9 0 -9 5 -16 10 -16 6 0 10 -6 8
-13 -4 -18 43 -86 65 -93 9 -3 17 -10 17 -15 0 -6 14 -15 30 -20 17 -6 30 -17
30 -25 0 -8 5 -14 10 -14 6 0 13 -7 16 -15 8 -19 70 -85 82 -85 4 0 32 -18 62
-40 29 -22 56 -37 60 -35 5 3 10 -2 14 -10 3 -8 13 -15 21 -15 9 0 13 -4 10
-10 -3 -5 2 -10 12 -10 11 0 24 -5 30 -11 6 -6 19 -12 29 -14 11 -2 19 -4 19
-5 0 -1 20 -3 45 -4 25 -1 52 -6 60 -11 23 -14 40 -17 103 -15 36 0 57 -3 57
-10 0 -6 5 -8 12 -4 10 6 42 13 76 16 6 1 12 6 12 11 0 6 3 7 7 4 3 -4 13 -1
21 6 13 9 14 9 8 0 -5 -9 -2 -11 8 -7 9 3 16 10 16 14 0 8 33 21 66 24 12 2
42 15 67 29 24 14 47 23 51 20 3 -3 6 -1 6 5 0 10 38 28 53 24 4 -1 7 3 7 9 0
5 5 7 10 4 6 -3 10 -1 10 4 0 6 5 11 11 11 6 0 24 9 40 21 16 11 35 22 42 23
24 4 97 47 97 57 0 6 4 8 9 5 5 -3 15 1 22 10 7 8 26 21 43 28 17 8 46 28 65
45 19 17 39 31 44 31 12 0 77 68 77 81 0 5 7 9 15 9 8 0 15 5 15 10 0 6 6 10
14 10 8 0 17 9 21 19 3 11 14 23 23 26 18 7 82 89 82 105 0 6 5 10 11 10 5 0
8 4 4 9 -3 5 -1 13 5 16 6 4 8 15 5 26 -4 10 -2 19 3 19 5 0 8 10 7 21 -1 12
13 37 31 56 23 24 34 47 38 81 10 73 14 256 7 267 -4 6 -8 24 -10 40 -2 17 -7
33 -13 36 -5 3 -9 9 -9 13 3 19 -3 28 -39 66 -22 23 -40 48 -40 57 0 21 -82
96 -118 107 -27 9 -64 17 -79 18 -7 1 -13 4 -13 8 0 7 -5 8 -66 11 -39 1 -107
-15 -129 -31 -5 -4 -20 -6 -32 -5 -13 1 -23 -1 -23 -5 0 -4 -20 -16 -44 -28
-28 -14 -46 -31 -50 -46 -5 -20 -36 -40 -58 -37 -4 0 -10 -9 -13 -20 -4 -11
-24 -38 -46 -60 -22 -22 -37 -44 -34 -50 4 -5 -1 -9 -9 -9 -9 0 -15 -3 -15 -7
3 -18 -2 -31 -21 -53 -20 -23 -21 -23 -35 -4 -8 10 -15 24 -15 31 0 6 -9 18
-20 26 -11 8 -17 16 -14 20 3 3 -8 16 -25 28 -18 13 -29 29 -27 36 3 7 1 15
-5 18 -5 4 -7 10 -4 15 3 4 -11 18 -30 30 -19 12 -35 28 -35 36 0 8 -5 14 -11
14 -5 0 -8 4 -4 9 3 6 -22 37 -55 69 -33 33 -60 65 -60 71 0 6 -7 11 -15 11
-8 0 -39 16 -69 35 -30 19 -57 35 -60 35 -3 0 -17 5 -33 12 -43 17 -55 18 -76
3 -17 -12 -24 -10 -59 15 -48 35 -138 50 -165 29 -14 -12 -16 -12 -8 0 6 11 5
12 -6 5 -23 -14 -59 -16 -59 -2 0 9 -3 9 -10 -2 -8 -12 -10 -12 -10 -1 0 8 -3
11 -7 8 -3 -4 -12 1 -18 10 -11 15 -12 14 -10 -9z"/>
</g>
</svg>
